<svg width="16" height="17" viewBox="0 0 16 17" fill="none" xmlns="http://www.w3.org/2000/svg">
<path d="M8.00004 0.776718C8.56506 0.776537 9.11109 0.980774 9.5373 1.35172C9.96351 1.72267 10.2411 2.23529 10.3189 2.79494C10.3967 3.3546 10.2694 3.92349 9.96051 4.39661C9.65162 4.86975 9.18199 5.21515 8.63833 5.36906V8.64906C8.63833 8.81835 8.57109 8.9807 8.45138 9.10041C8.33168 9.22011 8.16932 9.28736 8.00004 9.28736C7.83075 9.28736 7.66839 9.22011 7.54868 9.10041C7.42899 8.9807 7.36173 8.81835 7.36173 8.64906V5.36906C6.81928 5.21396 6.35109 4.8682 6.04326 4.39538C5.73544 3.92255 5.60871 3.35449 5.68639 2.79566C5.76405 2.23685 6.04091 1.72487 6.466 1.35392C6.89109 0.982975 7.43585 0.778003 8.00004 0.776718ZM9.06387 3.11715C9.06387 2.835 8.95179 2.56442 8.75228 2.36491C8.55277 2.1654 8.28218 2.05331 8.00004 2.05331C7.71789 2.05331 7.4473 2.1654 7.24779 2.36491C7.04829 2.56442 6.9362 2.835 6.9362 3.11715C6.9362 3.3993 7.04829 3.66988 7.24779 3.86939C7.4473 4.0689 7.71789 4.18097 8.00004 4.18097C8.28218 4.18097 8.55277 4.0689 8.75228 3.86939C8.95179 3.66988 9.06387 3.3993 9.06387 3.11715ZM15.6596 4.6065C15.6596 4.04221 15.4354 3.50104 15.0364 3.10202C14.6374 2.70302 14.0962 2.47885 13.5319 2.47885C12.9677 2.47885 12.4265 2.70302 12.0275 3.10202C11.6285 3.50104 11.4043 4.04221 11.4043 4.6065V7.58524H9.4894V8.86183H12.6809V4.6065C12.6809 4.38079 12.7706 4.16432 12.9302 4.00471C13.0898 3.8451 13.3062 3.75544 13.5319 3.75544C13.7577 3.75544 13.9741 3.8451 14.1338 4.00471C14.2934 4.16432 14.3831 4.38079 14.3831 4.6065V14.8193C14.3831 15.045 14.2934 15.2615 14.1338 15.4211C13.9741 15.5806 13.7577 15.6703 13.5319 15.6703C13.3062 15.6703 13.0898 15.5806 12.9302 15.4211C12.7706 15.2615 12.6809 15.045 12.6809 14.8193V10.564H8.8511V14.8193C8.8511 15.045 8.76144 15.2615 8.60183 15.4211C8.44222 15.5806 8.22575 15.6703 8.00004 15.6703C7.77432 15.6703 7.55784 15.5806 7.39824 15.4211C7.23864 15.2615 7.14897 15.045 7.14897 14.8193V10.564H2.04258C1.92972 10.564 1.82149 10.5191 1.74168 10.4393C1.66188 10.3595 1.61705 10.2513 1.61705 10.1384V4.6065C1.61705 4.38079 1.70671 4.16432 1.86632 4.00471C2.02593 3.8451 2.2424 3.75544 2.46811 3.75544C2.69383 3.75544 2.91031 3.8451 3.0699 4.00471C3.22951 4.16432 3.31918 4.38079 3.31918 4.6065V8.86183H6.51067V7.58524H4.59577V4.6065C4.59577 4.04221 4.37161 3.50104 3.9726 3.10202C3.57358 2.70302 3.0324 2.47885 2.46811 2.47885C1.90382 2.47885 1.36265 2.70302 0.963632 3.10202C0.564616 3.50104 0.340454 4.04221 0.340454 4.6065V10.1384C0.340454 10.5899 0.519785 11.0228 0.838996 11.342C1.15821 11.6612 1.59115 11.8406 2.04258 11.8406H5.87238V14.8193C5.87238 15.3836 6.09653 15.9247 6.49555 16.3238C6.89457 16.7228 7.43574 16.9469 8.00004 16.9469C8.56433 16.9469 9.1055 16.7228 9.50452 16.3238C9.90354 15.9247 10.1277 15.3836 10.1277 14.8193V11.8406H11.4043V14.8193C11.4043 15.3836 11.6285 15.9247 12.0275 16.3238C12.4265 16.7228 12.9677 16.9469 13.5319 16.9469C14.0962 16.9469 14.6374 16.7228 15.0364 16.3238C15.4354 15.9247 15.6596 15.3836 15.6596 14.8193V4.6065Z" fill="#828282"/>
</svg>
