<svg width="16" height="15" viewBox="0 0 16 15" fill="none" xmlns="http://www.w3.org/2000/svg">
<path d="M13.9273 2.93869L13.9384 2.92525L10.7759 0.363697L9.77976 1.59229L11.414 2.91577C11.0085 3.16211 10.6866 3.52472 10.4901 3.95646C10.2935 4.3882 10.2314 4.86909 10.3118 5.33659C10.4304 6.04734 10.9198 6.66164 11.5531 7.00556C12.2607 7.39057 12.8813 7.355 13.4331 7.15893L13.4213 12.0465C13.4223 12.1774 13.3906 12.3064 13.329 12.422C13.2676 12.5376 13.1782 12.6361 13.0691 12.7083C12.9601 12.7807 12.8346 12.8248 12.7043 12.8365C12.5738 12.8482 12.4426 12.8272 12.3223 12.7753C12.2281 12.7352 12.1427 12.6768 12.0709 12.6038C11.9979 12.5306 11.9399 12.4436 11.9004 12.3481C11.861 12.2524 11.8407 12.1499 11.8409 12.0465L11.8591 10.4652C11.8599 10.154 11.799 9.84576 11.68 9.55822C11.561 9.27068 11.3861 9.00956 11.1657 8.78994C10.9455 8.56921 10.6838 8.39408 10.3958 8.27456C10.1078 8.15504 9.79906 8.09349 9.48723 8.09342H8.69664V1.7686C8.69664 1.34923 8.53004 0.947052 8.23352 0.650518C7.93698 0.353984 7.53479 0.187393 7.11542 0.187393H1.58121C1.16184 0.187393 0.759657 0.353984 0.463124 0.650518C0.166592 0.947052 0 1.34923 0 1.7686V12.8371C0 13.2564 0.166592 13.6585 0.463124 13.9551C0.759657 14.2517 1.16184 14.4182 1.58121 14.4182H7.11542C7.53479 14.4182 7.93698 14.2517 8.23352 13.9551C8.53004 13.6585 8.69664 13.2564 8.69664 12.8371V9.67463H9.48723C9.59477 9.67463 9.69833 9.69598 9.79636 9.7363C9.98452 9.81867 10.1345 9.96922 10.2162 10.1577C10.2572 10.255 10.2782 10.3596 10.2778 10.4652L10.2589 12.0465C10.2589 12.3675 10.3213 12.6781 10.4455 12.9699C10.5648 13.2536 10.7364 13.5075 10.9522 13.7217C11.1716 13.9435 11.4332 14.1194 11.7213 14.2389C12.0095 14.3585 12.3186 14.4195 12.6306 14.4182C12.9516 14.4182 13.2616 14.3566 13.5541 14.2317C13.8371 14.1131 14.0917 13.9415 14.306 13.7249C14.5273 13.5051 14.7029 13.2436 14.8224 12.9555C14.9419 12.6673 15.0032 12.3583 15.0025 12.0465L15.0215 4.93102C15.0207 4.53383 14.9201 4.14322 14.7289 3.79508C14.5377 3.44695 14.262 3.15245 13.9273 2.93869ZM7.11542 4.14041H1.58121V1.7686H7.11542V4.14041ZM12.6497 5.72161C12.44 5.72161 12.2389 5.63832 12.0906 5.49005C11.9424 5.34179 11.8591 5.14069 11.8591 4.93102C11.8591 4.72133 11.9424 4.52023 12.0906 4.37197C12.2389 4.22371 12.44 4.14041 12.6497 4.14041C12.8593 4.14041 13.0604 4.22371 13.2087 4.37197C13.357 4.52023 13.4402 4.72133 13.4402 4.93102C13.4402 5.14069 13.357 5.34179 13.2087 5.49005C13.0604 5.63832 12.8593 5.72161 12.6497 5.72161Z" fill="#828282"/>
</svg>
