<svg width="11" height="14" viewBox="0 0 11 14" fill="none" xmlns="http://www.w3.org/2000/svg">
<path d="M2.69666 10.9218C2.69666 10.9218 0.696655 5.58843 0.696655 2.92176C0.696655 0.255092 2.02999 0.255093 2.02999 0.255093H2.69666C2.69666 0.255093 3.36332 0.255093 3.36332 0.921763C3.36332 1.58843 2.69666 1.58843 2.69666 2.92176C2.69666 4.25509 4.69666 5.58843 4.69666 7.58843C4.69666 9.58846 2.69666 10.9218 2.69666 10.9218ZM6.02999 10.2551C5.36332 10.2551 3.36332 11.9218 3.36332 11.9218C3.16332 12.0551 3.22999 12.2551 3.36332 12.4551C3.36332 12.4551 4.02999 13.6551 5.36332 13.6551H9.36329C10.0967 13.6551 10.6967 13.0551 10.6967 12.3218V11.6551C10.6967 10.9218 10.0967 10.3218 9.36329 10.3218H6.02999V10.2551Z" fill="#828282"/>
</svg>
